<svg width="400" height="400" viewBox="0 0 400 400" fill="none" xmlns="http://www.w3.org/2000/svg">
  <!-- Lettre C stylisée (Le Réseau) -->
  <path d="M280 120C258.4 98.4 228.8 85 196 85C132.5 85 81 136.5 81 200C81 263.5 132.5 315 196 315C228.8 315 258.4 301.6 280 280" 
        stroke="#D4AF37" stroke-width="6" stroke-linecap="round"/>
  
  <!-- LA BOUSSOLE (Lettre O) -->
  <circle cx="205" cy="200" r="55" stroke="#D4AF37" stroke-width="2"/>
  
  <!-- Graduation Cardinale (N, S, E, O) -->
  <line x1="205" y1="145" x2="205" y2="152" stroke="#D4AF37" stroke-width="2"/>
  <line x1="205" y1="248" x2="205" y2="255" stroke="#D4AF37" stroke-width="2"/>
  <line x1="260" y1="200" x2="253" y2="200" stroke="#D4AF37" stroke-width="2"/>
  <line x1="150" y1="200" x2="157" y2="200" stroke="#D4AF37" stroke-width="2"/>

  <!-- L'Aiguille Magnétique -->
  <g transform="rotate(25 205 200)">
    <path d="M205 160L212 200H198L205 160Z" fill="#D4AF37"/>
    <path d="M205 240L198 200H212L205 240Z" stroke="#D4AF37" stroke-width="1.5"/>
    <circle cx="205" cy="200" r="3" fill="#0D0B08" stroke="#D4AF37" stroke-width="1.5"/>
  </g>
  
  <!-- Texte CERCLE ORIGINE -->
  <text x="50%" y="370" text-anchor="middle" fill="#D4AF37" font-family="'Cinzel', serif" font-size="24" letter-spacing="10" font-weight="bold">CERCLE ORIGINE</text>
  
  <!-- Baseline EXPERIENCE FIRST -->
  <text x="50%" y="392" text-anchor="middle" fill="#D4AF37" font-family="'Inter', sans-serif" font-size="10" letter-spacing="4" font-weight="600" opacity="0.9">EXPERIENCE FIRST</text>
</svg>
